<?xml version="1.0" encoding="UTF-8" standalone="no"?>
<svg
   width="2000"
   height="2000"
   viewBox="0 0 2000 2000"
   version="1.1"
   id="svg14"
   sodipodi:docname="compare-light.svg"
   inkscape:version="1.3.2 (091e20ef0f, 2023-11-25, custom)"
   xmlns:inkscape="http://www.inkscape.org/namespaces/inkscape"
   xmlns:sodipodi="http://sodipodi.sourceforge.net/DTD/sodipodi-0.dtd"
   xmlns="http://www.w3.org/2000/svg"
   xmlns:svg="http://www.w3.org/2000/svg">
  <defs
     id="defs14" />
  <sodipodi:namedview
     id="namedview14"
     pagecolor="#ffffff"
     bordercolor="#000000"
     borderopacity="0.25"
     inkscape:showpageshadow="2"
     inkscape:pageopacity="0.0"
     inkscape:pagecheckerboard="0"
     inkscape:deskcolor="#d1d1d1"
     inkscape:zoom="0.9"
     inkscape:cx="996.11111"
     inkscape:cy="1000"
     inkscape:window-width="3840"
     inkscape:window-height="2050"
     inkscape:window-x="0"
     inkscape:window-y="0"
     inkscape:window-maximized="1"
     inkscape:current-layer="svg14" />
  <path
     fill="none"
     stroke-width="600.001"
     stroke-linecap="round"
     stroke-linejoin="round"
     stroke="rgb(24.31488%, 27.050781%, 30.589294%)"
     stroke-opacity="1"
     stroke-miterlimit="2.61313"
     d="M 15035.195312 12180.78125 L 12861.484375 10007.109375 L 15042.695312 7825.898438 L 14462.1875 7245.351562 L 11919.492188 9788.085938 L 11708.007812 9999.609375 L 14462.1875 12753.789062 Z M 15035.195312 12180.78125 "
     transform="matrix(0.1, 0, 0, -0.1, 0, 2000)"
     id="path12"
     style="stroke:#e5e5e5;stroke-opacity:1" />
  <path
     fill="none"
     stroke-width="600.001"
     stroke-linecap="round"
     stroke-linejoin="round"
     stroke="rgb(24.31488%, 27.050781%, 30.589294%)"
     stroke-opacity="1"
     stroke-miterlimit="2.61313"
     d="M 4948.4375 12180.78125 L 7122.1875 10007.109375 L 4940.9375 7825.898438 L 5521.445312 7245.351562 L 8275.703125 9999.609375 L 8064.179688 10211.09375 L 5521.445312 12753.789062 Z M 4948.4375 12180.78125 "
     transform="matrix(0.1, 0, 0, -0.1, 0, 2000)"
     id="path13"
     style="stroke:#e5e5e5;stroke-opacity:1" />
  <g
     id="g14"
     style="stroke:#e5e5e5;stroke-opacity:1">
    <path
       fill="none"
       stroke-width="600.001"
       stroke-linecap="round"
       stroke-linejoin="round"
       stroke="rgb(24.31488%, 27.050781%, 30.589294%)"
       stroke-opacity="1"
       stroke-miterlimit="2.61313"
       d="M 10420.117188 16588.710938 L 15188.203125 16588.710938 C 15660.3125 16588.710938 16089.296875 16412.5 16400.195312 16128.59375 C 16711.015625 15844.804688 16903.90625 15452.890625 16903.90625 15021.71875 L 16903.90625 4977.5 C 16903.90625 4546.289062 16711.015625 4154.414062 16400.195312 3870.546875 C 16089.296875 3586.679688 15660.3125 3410.46875 15188.203125 3410.46875 L 10420.117188 3410.46875 Z M 9579.140625 3410.46875 L 4811.015625 3410.46875 C 4338.867188 3410.46875 3909.84375 3586.679688 3599.023438 3870.546875 C 3288.242188 4154.414062 3095.3125 4546.289062 3095.3125 4977.5 L 3095.3125 15021.71875 C 3095.3125 15452.890625 3288.242188 15844.804688 3599.023438 16128.59375 C 3909.84375 16412.5 4338.867188 16588.710938 4811.015625 16588.710938 L 9579.140625 16588.710938 Z M 9579.140625 3410.46875 "
       transform="matrix(0.1, 0, 0, -0.1, 0, 2000)"
       id="path11"
       style="stroke:#e5e5e5;stroke-opacity:1" />
    <path
       fill="none"
       stroke-width="600.001"
       stroke-linecap="round"
       stroke-linejoin="round"
       stroke="rgb(24.31488%, 27.050781%, 30.589294%)"
       stroke-opacity="1"
       stroke-miterlimit="2.61313"
       d="M 10420.117188 17639.21875 L 10420.117188 2360.039062 L 9579.140625 2360.039062 L 9579.140625 17639.21875 Z M 10420.117188 17639.21875 "
       transform="matrix(0.1, 0, 0, -0.1, 0, 2000)"
       id="path14"
       style="stroke:#e5e5e5;stroke-opacity:1" />
  </g>
</svg>
