<?xml version="1.0" encoding="UTF-8" standalone="no"?>
<svg
   version="1.1"
   width="24"
   height="24"
   viewBox="0 0 24 24"
   id="svg4"
   sodipodi:docname="hand-back-right-outline.svg"
   inkscape:version="1.1.1 (3bf5ae0d25, 2021-09-20, custom)"
   xmlns:inkscape="http://www.inkscape.org/namespaces/inkscape"
   xmlns:sodipodi="http://sodipodi.sourceforge.net/DTD/sodipodi-0.dtd"
   xmlns="http://www.w3.org/2000/svg"
   xmlns:svg="http://www.w3.org/2000/svg">
  <defs
     id="defs8" />
  <sodipodi:namedview
     id="namedview6"
     pagecolor="#ffffff"
     bordercolor="#666666"
     borderopacity="1.0"
     inkscape:pageshadow="2"
     inkscape:pageopacity="0.0"
     inkscape:pagecheckerboard="0"
     showgrid="false"
     inkscape:zoom="26.25"
     inkscape:cx="12"
     inkscape:cy="11.980952"
     inkscape:window-width="3840"
     inkscape:window-height="2069"
     inkscape:window-x="0"
     inkscape:window-y="0"
     inkscape:window-maximized="1"
     inkscape:current-layer="svg4" />
  <path
     d="M21 7C21 5.62 19.88 4.5 18.5 4.5C18.33 4.5 18.16 4.5 18 4.55V4C18 2.62 16.88 1.5 15.5 1.5C15.27 1.5 15.04 1.53 14.83 1.59C14.46 .66 13.56 0 12.5 0C11.27 0 10.25 .89 10.04 2.06C9.87 2 9.69 2 9.5 2C8.12 2 7 3.12 7 4.5V10.39C6.66 10.08 6.24 9.85 5.78 9.73L5 9.5C4.18 9.29 3.31 9.61 2.82 10.35C2.44 10.92 2.42 11.66 2.67 12.3L5.23 18.73C6.5 21.91 9.57 24 13 24C17.42 24 21 20.42 21 16V7M19 16C19 19.31 16.31 22 13 22C10.39 22 8.05 20.41 7.09 18L4.5 11.45L5 11.59C5.5 11.71 5.85 12.05 6 12.5L7 15H9V4.5C9 4.22 9.22 4 9.5 4S10 4.22 10 4.5V12H12V2.5C12 2.22 12.22 2 12.5 2S13 2.22 13 2.5V12H15V4C15 3.72 15.22 3.5 15.5 3.5S16 3.72 16 4V12H18V7C18 6.72 18.22 6.5 18.5 6.5S19 6.72 19 7V16Z"
     id="path2"
     style="fill:#4d4d4d" />
</svg>
