<?xml version="1.0" encoding="UTF-8" standalone="no"?>
<svg
   viewBox="0 0 24 24"
   version="1.1"
   id="svg1"
   sodipodi:docname="table-column-remove.svg"
   inkscape:version="1.3.2 (091e20ef0f, 2023-11-25, custom)"
   xmlns:inkscape="http://www.inkscape.org/namespaces/inkscape"
   xmlns:sodipodi="http://sodipodi.sourceforge.net/DTD/sodipodi-0.dtd"
   xmlns="http://www.w3.org/2000/svg"
   xmlns:svg="http://www.w3.org/2000/svg">
  <defs
     id="defs1" />
  <sodipodi:namedview
     id="namedview1"
     pagecolor="#ffffff"
     bordercolor="#000000"
     borderopacity="0.25"
     inkscape:showpageshadow="2"
     inkscape:pageopacity="0.0"
     inkscape:pagecheckerboard="0"
     inkscape:deskcolor="#d1d1d1"
     inkscape:zoom="74.625"
     inkscape:cx="11.9933"
     inkscape:cy="12"
     inkscape:window-width="3840"
     inkscape:window-height="2048"
     inkscape:window-x="0"
     inkscape:window-y="0"
     inkscape:window-maximized="1"
     inkscape:current-layer="svg1" />
  <path
     d="M4,2H11A2,2 0 0,1 13,4V20A2,2 0 0,1 11,22H4A2,2 0 0,1 2,20V4A2,2 0 0,1 4,2M4,10V14H11V10H4M4,16V20H11V16H4M4,4V8H11V4H4M17.59,12L15,9.41L16.41,8L19,10.59L21.59,8L23,9.41L20.41,12L23,14.59L21.59,16L19,13.41L16.41,16L15,14.59L17.59,12Z"
     id="path1"
     style="fill:#4d4d4d" />
</svg>
