<?xml version="1.0" encoding="UTF-8" standalone="no"?>
<svg
   version="1.1"
   width="24"
   height="24"
   viewBox="0 0 24 24"
   id="svg4"
   sodipodi:docname="dots-triangle.svg"
   inkscape:version="1.1.1 (3bf5ae0d25, 2021-09-20, custom)"
   xmlns:inkscape="http://www.inkscape.org/namespaces/inkscape"
   xmlns:sodipodi="http://sodipodi.sourceforge.net/DTD/sodipodi-0.dtd"
   xmlns="http://www.w3.org/2000/svg"
   xmlns:svg="http://www.w3.org/2000/svg">
  <defs
     id="defs8" />
  <sodipodi:namedview
     id="namedview6"
     pagecolor="#ffffff"
     bordercolor="#666666"
     borderopacity="1.0"
     inkscape:pageshadow="2"
     inkscape:pageopacity="0.0"
     inkscape:pagecheckerboard="0"
     showgrid="false"
     inkscape:zoom="26.25"
     inkscape:cx="12"
     inkscape:cy="11.980952"
     inkscape:window-width="3840"
     inkscape:window-height="2069"
     inkscape:window-x="0"
     inkscape:window-y="0"
     inkscape:window-maximized="1"
     inkscape:current-layer="svg4" />
  <path
     d="M12 16C13.1 16 14 16.9 14 18S13.1 20 12 20 10 19.1 10 18 10.9 16 12 16M15 10C16.1 10 17 10.9 17 12S16.1 14 15 14 13 13.1 13 12 13.9 10 15 10M6 16C7.1 16 8 16.9 8 18S7.1 20 6 20 4 19.1 4 18 4.9 16 6 16M9 10C10.1 10 11 10.9 11 12S10.1 14 9 14 7 13.1 7 12 7.9 10 9 10M12 4C13.1 4 14 4.9 14 6S13.1 8 12 8 10 7.1 10 6 10.9 4 12 4M18 16C19.1 16 20 16.9 20 18S19.1 20 18 20 16 19.1 16 18 16.9 16 18 16"
     id="path2"
     style="fill:#4d4d4d" />
</svg>
