<?xml version="1.0" encoding="UTF-8" standalone="no"?>
<svg
   version="1.1"
   width="24"
   height="24"
   viewBox="0 0 24 24"
   id="svg4"
   sodipodi:docname="plus-circle-multiple-outline.svg"
   inkscape:version="1.1.1 (3bf5ae0d25, 2021-09-20, custom)"
   xmlns:inkscape="http://www.inkscape.org/namespaces/inkscape"
   xmlns:sodipodi="http://sodipodi.sourceforge.net/DTD/sodipodi-0.dtd"
   xmlns="http://www.w3.org/2000/svg"
   xmlns:svg="http://www.w3.org/2000/svg">
  <defs
     id="defs8" />
  <sodipodi:namedview
     id="namedview6"
     pagecolor="#ffffff"
     bordercolor="#666666"
     borderopacity="1.0"
     inkscape:pageshadow="2"
     inkscape:pageopacity="0.0"
     inkscape:pagecheckerboard="0"
     showgrid="false"
     inkscape:zoom="26.25"
     inkscape:cx="12"
     inkscape:cy="11.980952"
     inkscape:window-width="3840"
     inkscape:window-height="2069"
     inkscape:window-x="0"
     inkscape:window-y="0"
     inkscape:window-maximized="1"
     inkscape:current-layer="svg4" />
  <path
     d="M16,8H14V11H11V13H14V16H16V13H19V11H16M2,12C2,9.21 3.64,6.8 6,5.68V3.5C2.5,4.76 0,8.09 0,12C0,15.91 2.5,19.24 6,20.5V18.32C3.64,17.2 2,14.79 2,12M15,3C10.04,3 6,7.04 6,12C6,16.96 10.04,21 15,21C19.96,21 24,16.96 24,12C24,7.04 19.96,3 15,3M15,19C11.14,19 8,15.86 8,12C8,8.14 11.14,5 15,5C18.86,5 22,8.14 22,12C22,15.86 18.86,19 15,19Z"
     id="path2"
     style="fill:#4d4d4d" />
</svg>
