<?xml version="1.0" encoding="UTF-8" standalone="no"?>
<svg
   viewBox="0 0 24 24"
   version="1.1"
   id="svg1"
   sodipodi:docname="camera-metering-center.svg"
   inkscape:version="1.3.1 (91b66b0783, 2023-11-16, custom)"
   xmlns:inkscape="http://www.inkscape.org/namespaces/inkscape"
   xmlns:sodipodi="http://sodipodi.sourceforge.net/DTD/sodipodi-0.dtd"
   xmlns="http://www.w3.org/2000/svg"
   xmlns:svg="http://www.w3.org/2000/svg">
  <defs
     id="defs1" />
  <sodipodi:namedview
     id="namedview1"
     pagecolor="#ffffff"
     bordercolor="#cccccc"
     borderopacity="1"
     inkscape:showpageshadow="0"
     inkscape:pageopacity="1"
     inkscape:pagecheckerboard="0"
     inkscape:deskcolor="#d1d1d1"
     inkscape:zoom="75.75"
     inkscape:cx="11.993399"
     inkscape:cy="12"
     inkscape:window-width="3840"
     inkscape:window-height="2050"
     inkscape:window-x="0"
     inkscape:window-y="0"
     inkscape:window-maximized="1"
     inkscape:current-layer="svg1" />
  <path
     d="M4,4H20A2,2 0 0,1 22,6V18A2,2 0 0,1 20,20H4A2,2 0 0,1 2,18V6A2,2 0 0,1 4,4M4,6V18H20V6H4M12,10.5A1.5,1.5 0 0,1 13.5,12A1.5,1.5 0 0,1 12,13.5A1.5,1.5 0 0,1 10.5,12A1.5,1.5 0 0,1 12,10.5M12,7.5C14.14,7.5 15.93,9 16.39,11H14.83C14.42,9.83 13.31,9 12,9C10.69,9 9.58,9.83 9.17,11H7.61C8.07,9 9.86,7.5 12,7.5M12,16.5C9.86,16.5 8.07,15 7.61,13H9.17C9.58,14.17 10.69,15 12,15C13.31,15 14.42,14.17 14.83,13H16.39C15.93,15 14.14,16.5 12,16.5Z"
     id="path1"
     style="fill:#4d4d4d" />
</svg>
