<?xml version="1.0" encoding="UTF-8" standalone="no"?>
<svg
   viewBox="0 0 66 64"
   version="1.1"
   id="svg1"
   sodipodi:docname="table-column-remove-v2.svg"
   inkscape:version="1.3.1 (91b66b0783, 2023-11-16, custom)"
   width="66"
   height="64"
   xmlns:inkscape="http://www.inkscape.org/namespaces/inkscape"
   xmlns:sodipodi="http://sodipodi.sourceforge.net/DTD/sodipodi-0.dtd"
   xmlns="http://www.w3.org/2000/svg"
   xmlns:svg="http://www.w3.org/2000/svg">
  <defs
     id="defs1" />
  <sodipodi:namedview
     id="namedview1"
     pagecolor="#ffffff"
     bordercolor="#cccccc"
     borderopacity="1"
     inkscape:showpageshadow="0"
     inkscape:pageopacity="1"
     inkscape:pagecheckerboard="0"
     inkscape:deskcolor="#d1d1d1"
     inkscape:zoom="15.23"
     inkscape:cx="11.982928"
     inkscape:cy="12.015758"
     inkscape:window-width="3840"
     inkscape:window-height="2050"
     inkscape:window-x="0"
     inkscape:window-y="0"
     inkscape:window-maximized="1"
     inkscape:current-layer="svg1"
     showguides="true" />
  <path
     d="m 27,12 h 14 a 4,4 0 0 1 4,4 v 32 a 4,4 0 0 1 -4,4 H 27 A 4,4 0 0 1 23,48 V 16 a 4,4 0 0 1 4,-4 m 0,16 v 8 H 41 V 28 H 27 m 0,12 v 8 H 41 V 40 H 27 m 0,-24 v 8 H 41 V 16 H 27 M 54.18,32 49,26.82 51.82,24 57,29.18 62.18,24 65,26.82 59.82,32 65,37.18 62.18,40 57,34.82 51.82,40 49,37.18 Z"
     id="path1"
     style="fill:#4d4d4d;stroke-width:2" />
</svg>
