<?xml version="1.0" encoding="UTF-8" standalone="no"?>
<svg
   width="2000"
   height="2000"
   viewBox="0 0 2000 2000"
   version="1.1"
   id="svg14"
   sodipodi:docname="compare.svg"
   inkscape:version="1.3.2 (091e20ef0f, 2023-11-25, custom)"
   xmlns:inkscape="http://www.inkscape.org/namespaces/inkscape"
   xmlns:sodipodi="http://sodipodi.sourceforge.net/DTD/sodipodi-0.dtd"
   xmlns="http://www.w3.org/2000/svg"
   xmlns:svg="http://www.w3.org/2000/svg">
  <defs
     id="defs14" />
  <sodipodi:namedview
     id="namedview14"
     pagecolor="#ffffff"
     bordercolor="#000000"
     borderopacity="0.25"
     inkscape:showpageshadow="2"
     inkscape:pageopacity="0.0"
     inkscape:pagecheckerboard="0"
     inkscape:deskcolor="#d1d1d1"
     inkscape:zoom="0.9"
     inkscape:cx="997.22222"
     inkscape:cy="1000"
     inkscape:window-width="3840"
     inkscape:window-height="2050"
     inkscape:window-x="0"
     inkscape:window-y="0"
     inkscape:window-maximized="1"
     inkscape:current-layer="svg14" />
  <path
     fill-rule="evenodd"
     fill="rgb(95.701599%, 96.875%, 98.046875%)"
     fill-opacity="1"
     d="M 1908.238281 1915.15625 L 1889.179688 1915.15625 C 1888.300781 1915.15625 1887.589844 1915.871094 1887.589844 1916.746094 L 1887.589844 1935.800781 C 1887.589844 1936.679688 1888.300781 1937.394531 1889.179688 1937.394531 L 1908.238281 1937.394531 C 1909.109375 1937.394531 1909.828125 1936.679688 1909.828125 1935.800781 L 1909.828125 1916.746094 C 1909.828125 1915.871094 1909.109375 1915.15625 1908.238281 1915.15625 "
     id="path2" />
  <path
     fill-rule="evenodd"
     fill="rgb(95.701599%, 96.875%, 98.046875%)"
     fill-opacity="1"
     d="M 1865.28125 1916.171875 L 1847.089844 1916.171875 C 1846.261719 1916.171875 1845.578125 1916.855469 1845.578125 1917.691406 L 1845.578125 1935.875 C 1845.578125 1936.710938 1846.261719 1937.394531 1847.089844 1937.394531 L 1865.28125 1937.394531 C 1866.109375 1937.394531 1866.800781 1936.710938 1866.800781 1935.875 L 1866.800781 1917.691406 C 1866.800781 1916.855469 1866.109375 1916.171875 1865.28125 1916.171875 "
     id="path3" />
  <path
     fill-rule="evenodd"
     fill="rgb(95.701599%, 96.875%, 98.046875%)"
     fill-opacity="1"
     d="M 1822.320312 1917.1875 L 1805.011719 1917.1875 C 1804.210938 1917.1875 1803.558594 1917.839844 1803.558594 1918.636719 L 1803.558594 1935.949219 C 1803.558594 1936.742188 1804.210938 1937.394531 1805.011719 1937.394531 L 1822.320312 1937.394531 C 1823.121094 1937.394531 1823.769531 1936.742188 1823.769531 1935.949219 L 1823.769531 1918.636719 C 1823.769531 1917.839844 1823.121094 1917.1875 1822.320312 1917.1875 "
     id="path4" />
  <path
     fill-rule="evenodd"
     fill="rgb(95.701599%, 96.875%, 98.046875%)"
     fill-opacity="1"
     d="M 1779.371094 1918.207031 L 1762.929688 1918.207031 C 1762.171875 1918.207031 1761.550781 1918.824219 1761.550781 1919.582031 L 1761.550781 1936.019531 C 1761.550781 1936.777344 1762.171875 1937.394531 1762.929688 1937.394531 L 1779.371094 1937.394531 C 1780.121094 1937.394531 1780.738281 1936.777344 1780.738281 1936.019531 L 1780.738281 1919.582031 C 1780.738281 1918.824219 1780.121094 1918.207031 1779.371094 1918.207031 "
     id="path5" />
  <path
     fill-rule="evenodd"
     fill="rgb(95.701599%, 96.875%, 98.046875%)"
     fill-opacity="1"
     d="M 1736.410156 1919.222656 L 1720.839844 1919.222656 C 1720.128906 1919.222656 1719.539062 1919.808594 1719.539062 1920.523438 L 1719.539062 1936.09375 C 1719.539062 1936.808594 1720.128906 1937.394531 1720.839844 1937.394531 L 1736.410156 1937.394531 C 1737.128906 1937.394531 1737.710938 1936.808594 1737.710938 1936.09375 L 1737.710938 1920.523438 C 1737.710938 1919.808594 1737.128906 1919.222656 1736.410156 1919.222656 "
     id="path6" />
  <path
     fill-rule="evenodd"
     fill="rgb(95.701599%, 96.875%, 98.046875%)"
     fill-opacity="1"
     d="M 1693.460938 1920.238281 L 1678.761719 1920.238281 C 1678.078125 1920.238281 1677.53125 1920.792969 1677.53125 1921.46875 L 1677.53125 1936.167969 C 1677.53125 1936.84375 1678.078125 1937.394531 1678.761719 1937.394531 L 1693.460938 1937.394531 C 1694.128906 1937.394531 1694.679688 1936.84375 1694.679688 1936.167969 L 1694.679688 1921.46875 C 1694.679688 1920.792969 1694.128906 1920.238281 1693.460938 1920.238281 "
     id="path7" />
  <path
     fill-rule="evenodd"
     fill="rgb(95.701599%, 96.875%, 98.046875%)"
     fill-opacity="1"
     d="M 1650.5 1921.257812 L 1636.671875 1921.257812 C 1636.039062 1921.257812 1635.519531 1921.777344 1635.519531 1922.414062 L 1635.519531 1936.238281 C 1635.519531 1936.875 1636.039062 1937.394531 1636.671875 1937.394531 L 1650.5 1937.394531 C 1651.140625 1937.394531 1651.648438 1936.875 1651.648438 1936.238281 L 1651.648438 1922.414062 C 1651.648438 1921.777344 1651.140625 1921.257812 1650.5 1921.257812 "
     id="path8" />
  <path
     fill-rule="evenodd"
     fill="rgb(95.701599%, 96.875%, 98.046875%)"
     fill-opacity="1"
     d="M 1607.539062 1922.273438 L 1594.589844 1922.273438 C 1593.988281 1922.273438 1593.511719 1922.761719 1593.511719 1923.355469 L 1593.511719 1936.3125 C 1593.511719 1936.90625 1593.988281 1937.394531 1594.589844 1937.394531 L 1607.539062 1937.394531 C 1608.140625 1937.394531 1608.628906 1936.90625 1608.628906 1936.3125 L 1608.628906 1923.355469 C 1608.628906 1922.761719 1608.140625 1922.273438 1607.539062 1922.273438 "
     id="path9" />
  <path
     fill-rule="evenodd"
     fill="rgb(95.701599%, 96.875%, 98.046875%)"
     fill-opacity="1"
     d="M 1564.589844 1923.292969 L 1552.5 1923.292969 C 1551.949219 1923.292969 1551.488281 1923.746094 1551.488281 1924.300781 L 1551.488281 1936.386719 C 1551.488281 1936.941406 1551.949219 1937.394531 1552.5 1937.394531 L 1564.589844 1937.394531 C 1565.140625 1937.394531 1565.601562 1936.941406 1565.601562 1936.386719 L 1565.601562 1924.300781 C 1565.601562 1923.746094 1565.140625 1923.292969 1564.589844 1923.292969 "
     id="path10" />
  <path
     fill="none"
     stroke-width="600.001"
     stroke-linecap="round"
     stroke-linejoin="round"
     stroke="rgb(24.31488%, 27.050781%, 30.589294%)"
     stroke-opacity="1"
     stroke-miterlimit="2.61313"
     d="M 15035.195312 12180.78125 L 12861.484375 10007.109375 L 15042.695312 7825.898438 L 14462.1875 7245.351562 L 11919.492188 9788.085938 L 11708.007812 9999.609375 L 14462.1875 12753.789062 Z M 15035.195312 12180.78125 "
     transform="matrix(0.1, 0, 0, -0.1, 0, 2000)"
     id="path12"
     style="stroke:#4a4c4f;stroke-opacity:1" />
  <path
     fill="none"
     stroke-width="600.001"
     stroke-linecap="round"
     stroke-linejoin="round"
     stroke="rgb(24.31488%, 27.050781%, 30.589294%)"
     stroke-opacity="1"
     stroke-miterlimit="2.61313"
     d="M 4948.4375 12180.78125 L 7122.1875 10007.109375 L 4940.9375 7825.898438 L 5521.445312 7245.351562 L 8275.703125 9999.609375 L 8064.179688 10211.09375 L 5521.445312 12753.789062 Z M 4948.4375 12180.78125 "
     transform="matrix(0.1, 0, 0, -0.1, 0, 2000)"
     id="path13"
     style="stroke:#4d4d4d;stroke-opacity:1" />
  <g
     id="g14"
     style="stroke:#4b4c4e;stroke-opacity:1">
    <path
       fill="none"
       stroke-width="600.001"
       stroke-linecap="round"
       stroke-linejoin="round"
       stroke="rgb(24.31488%, 27.050781%, 30.589294%)"
       stroke-opacity="1"
       stroke-miterlimit="2.61313"
       d="M 10420.117188 16588.710938 L 15188.203125 16588.710938 C 15660.3125 16588.710938 16089.296875 16412.5 16400.195312 16128.59375 C 16711.015625 15844.804688 16903.90625 15452.890625 16903.90625 15021.71875 L 16903.90625 4977.5 C 16903.90625 4546.289062 16711.015625 4154.414062 16400.195312 3870.546875 C 16089.296875 3586.679688 15660.3125 3410.46875 15188.203125 3410.46875 L 10420.117188 3410.46875 Z M 9579.140625 3410.46875 L 4811.015625 3410.46875 C 4338.867188 3410.46875 3909.84375 3586.679688 3599.023438 3870.546875 C 3288.242188 4154.414062 3095.3125 4546.289062 3095.3125 4977.5 L 3095.3125 15021.71875 C 3095.3125 15452.890625 3288.242188 15844.804688 3599.023438 16128.59375 C 3909.84375 16412.5 4338.867188 16588.710938 4811.015625 16588.710938 L 9579.140625 16588.710938 Z M 9579.140625 3410.46875 "
       transform="matrix(0.1, 0, 0, -0.1, 0, 2000)"
       id="path11"
       style="stroke:#4b4c4e;stroke-opacity:1" />
    <path
       fill="none"
       stroke-width="600.001"
       stroke-linecap="round"
       stroke-linejoin="round"
       stroke="rgb(24.31488%, 27.050781%, 30.589294%)"
       stroke-opacity="1"
       stroke-miterlimit="2.61313"
       d="M 10420.117188 17639.21875 L 10420.117188 2360.039062 L 9579.140625 2360.039062 L 9579.140625 17639.21875 Z M 10420.117188 17639.21875 "
       transform="matrix(0.1, 0, 0, -0.1, 0, 2000)"
       id="path14"
       style="stroke:#4b4c4e;stroke-opacity:1" />
  </g>
</svg>
